HIERARCHY
ROOT Hips
{
  OFFSET 196.326 95.9168 97.7182
  CHANNELS 6 Xposition Yposition Zposition Zrotation Xrotation Yrotation
  JOINT LeftUpLeg
  {
    OFFSET 8.64259 1.95398 -2.38835
    CHANNELS 3 Zrotation Xrotation Yrotation
    JOINT LeftLeg
    {
      OFFSET 43.7702 0 0
      CHANNELS 3 Zrotation Xrotation Yrotation
      JOINT LeftFoot
      {
        OFFSET 40.6238 0 0
        CHANNELS 3 Zrotation Xrotation Yrotation
        JOINT LeftToeBase
        {
          OFFSET 12.7242 0 0
          CHANNELS 3 Zrotation Xrotation Yrotation
          End Site
          {
            OFFSET 0 0 0
          }
        }
      }
    }
  }
  JOINT RightUpLeg
  {
    OFFSET -8.2249 1.95398 -2.59336
    CHANNELS 3 Zrotation Xrotation Yrotation
    JOINT RightLeg
    {
      OFFSET 43.5653 0 0
      CHANNELS 3 Zrotation Xrotation Yrotation
      JOINT RightFoot
      {
        OFFSET 40.6238 0 0
        CHANNELS 3 Zrotation Xrotation Yrotation
        JOINT RightToeBase
        {
          OFFSET 12.7242 0 0
          CHANNELS 3 Zrotation Xrotation Yrotation
          End Site
          {
            OFFSET 0 0 0
          }
        }
      }
    }
  }
  JOINT Spine
  {
    OFFSET 0.165834 0.87714 6.61349
    CHANNELS 3 Zrotation Xrotation Yrotation
    JOINT Spine1
    {
      OFFSET 7.38963 1.71661e-005 0
      CHANNELS 3 Zrotation Xrotation Yrotation
      JOINT Spine2
      {
        OFFSET 11.9445 1.14441e-005 0
        CHANNELS 3 Zrotation Xrotation Yrotation
        JOINT Spine3
        {
          OFFSET 14.7254 4.19617e-005 0
          CHANNELS 3 Zrotation Xrotation Yrotation
          JOINT Spine4
          {
            OFFSET 10.9679 0 0
            CHANNELS 3 Zrotation Xrotation Yrotation
            JOINT RightShoulder
            {
              OFFSET 2.46616 -1.6653 3.69651
              CHANNELS 3 Zrotation Xrotation Yrotation
              JOINT RightArm
              {
                OFFSET 13.0012 0 0
                CHANNELS 3 Zrotation Xrotation Yrotation
                JOINT RightForeArm
                {
                  OFFSET 28.7848 1.52588e-005 0
                  CHANNELS 3 Zrotation Xrotation Yrotation
                  JOINT RightHand
                  {
                    OFFSET 26.5688 1.52588e-005 0
                    CHANNELS 3 Zrotation Xrotation Yrotation
                    End Site
                    {
                      OFFSET 0 0 0
                    }
                  }
                }
              }
            }
            JOINT LeftShoulder
            {
              OFFSET 2.38034 -1.29275 -3.75231
              CHANNELS 3 Zrotation Xrotation Yrotation
              JOINT LeftArm
              {
                OFFSET 16.3182 6.10351e-005 0
                CHANNELS 3 Zrotation Xrotation Yrotation
                JOINT LeftForeArm
                {
                  OFFSET 27.0901 0 0
                  CHANNELS 3 Zrotation Xrotation Yrotation
                  JOINT LeftHand
                  {
                    OFFSET 24.5451 1.52588e-005 0
                    CHANNELS 3 Zrotation Xrotation Yrotation
                    End Site
                    {
                      OFFSET 0 0 0
                    }
                  }
                }
              }
            }
            JOINT Neck
            {
              OFFSET 5.0226 -0.0266342 0
              CHANNELS 3 Zrotation Xrotation Yrotation
              JOINT Head
              {
                OFFSET 6.69363 2.86102e-005 0
                CHANNELS 3 Zrotation Xrotation Yrotation
                End Site
                {
                  OFFSET 0 0 0
                }
              }
            }
          }
        }
      }
    }
  }
}
MOTION
Frames:	9
Frame Time:	0.0416667
-296.73 95.2262 -276.538 84.4978 -37.2119 86.3084 -173.334 12.7706 89.1027 -17.6088 32.4183 -2.70993 50.8297 -2.31287 34.4464 46.3787 16.8615 -12.7769 175.772 7.8478 87.7681 -16.1829 16.6675 1.64113 62.0527 0.937489 0.686208 36.5916 0.624383 24.0538 -0.677474 6.20496 -90.4113 14.4606 -1.54416 -0.607435 2.79045 -1.56941 -0.538883 -19.7491 -1.29019 -1.04348 0.263583 -1.29022 -1.04349 84.7581 -44.3786 -110.717 32.3307 -11.7366 10.079 -7.1929 -15.4269 -38.9709 -6.98859 -0.783382 7.37276 -97.0192 -48.9182 67.9863 -34.0672 8.81837 4.82408 5.96118 13.2577 -31.2258 7.97167 0.717113 4.5349 12.7045 4.49342 8.07238 -10.9278 2.41125 -1.32911 
-296.631 95.2316 -276.596 84.306 -37.3168 86.4591 -173.463 12.8418 89.1432 -18.0321 30.4163 -2.26405 51.4819 -1.62405 33.748 46.5214 15.835 -19.4112 176.007 6.91205 88.1529 -14.3458 15.441 1.39763 63.234 0.151053 0.197904 34.966 0.193734 21.498 -0.574929 6.19384 -90.4514 14.4822 -1.36091 -0.713516 2.81181 -1.39098 -0.652934 -19.7257 -1.08357 -1.08955 0.286954 -1.08356 -1.08956 84.3577 -44.1176 -111.456 32.5654 -11.1422 10.4774 -6.68942 -14.6561 -39.1894 -7.1955 -0.764984 6.67039 -98.4855 -48.7438 65.7614 -34.154 8.95025 5.01431 3.54147 8.02842 -30.598 8.56166 0.598402 2.78131 10.901 5.43794 7.95099 -9.36701 3.47906 -1.16715 
-296.52 95.2149 -276.78 83.8301 -37.865 86.2717 -173.389 12.5369 88.9843 -17.8525 25.2994 -1.84318 53.1107 -0.0211073 31.7277 53.2026 17.8441 -32.9087 176.739 4.60351 88.4829 -9.29913 13.3387 0.43732 65.5527 -1.91965 -1.01992 30.5373 -0.651686 16.688 -0.38903 6.18101 -90.4327 14.5084 -0.983559 -0.729366 2.83765 -1.01471 -0.68537 -19.6976 -0.718919 -0.991242 0.315011 -0.718909 -0.991243 83.5165 -44.7436 -112.564 31.9438 -10.353 10.7897 -6.72846 -14.4259 -39.2268 -6.63333 -0.659549 5.45436 -100.489 -48.3612 62.6762 -33.4971 8.29768 5.43068 4.30214 8.94655 -30.9167 9.19298 0.823683 4.64712 8.76035 5.31157 7.69535 -7.38279 3.55279 -0.927702 
-296.486 95.1411 -277.059 83.6995 -37.9903 86.2207 -173.29 11.9055 88.6408 -17.8071 17.3463 -1.17644 56.0855 2.63874 27.4703 56.0996 15.8432 -49.0197 177.019 2.69503 88.6139 -5.544 9.5506 -0.0967564 67.8645 -3.47327 -1.86813 28.1468 -1.00145 11.2169 -0.258779 6.2578 -90.3519 14.3563 -0.68559 -0.610524 2.68539 -0.711792 -0.579765 -19.8494 -0.470408 -0.788342 0.163246 -0.470416 -0.788352 82.6133 -45.7968 -113.58 31.0812 -9.70387 10.2161 -6.31047 -13.5979 -38.6338 -6.4676 -0.607719 4.69685 -101.465 -47.6126 60.9456 -33.0147 8.35809 5.23236 3.49584 7.38811 -30.5506 9.18452 0.700624 3.43644 7.84545 4.69642 6.61068 -6.01445 3.23452 -0.246261 
-296.41 95.1302 -277.419 84.2978 -37.7596 86.53 -173.511 10.1134 87.9634 -16.8465 6.16623 0.0232085 60.563 6.05263 19.6645 53.7569 12.4884 -61.2635 177.211 1.83131 89.1463 -5.03731 30.7647 -0.788433 65.7549 -4.4207 -2.3487 36.1802 0.569885 47.1364 -0.150804 6.46453 -90.2292 13.944 -0.410807 -0.404361 2.27302 -0.42821 -0.385895 -20.2619 -0.27029 -0.509128 -0.249246 -0.270299 -0.509137 82.1529 -47.1846 -113.755 29.7673 -9.23692 9.22642 -6.29821 -13.2512 -38.6815 -6.4123 -0.611201 4.90073 -101.868 -46.6443 59.9505 -32.3457 8.58538 4.79866 3.48051 7.17496 -31.0951 7.99589 0.632605 3.58762 8.28755 3.97022 5.09025 -4.83336 2.82287 0.297136 
-296.107 94.7547 -277.865 84.9514 -37.2326 87.2099 -173.579 8.61579 87.5726 -16.8688 -6.06533 1.27567 68.5017 9.12657 7.89964 43.3264 8.70129 -66.8422 177.534 1.87787 89.3692 -6.17934 31.3448 -1.35909 67.5713 -5.03696 -2.62421 37.0693 1.03122 46.3607 -0.0238501 6.67838 -90.1923 13.5167 -0.140506 -0.367199 1.84573 -0.156524 -0.360662 -20.689 -0.0236419 -0.392444 -0.676369 -0.0236553 -0.392452 83.0124 -48.1714 -112.066 28.9073 -9.09498 7.97629 -6.10882 -12.8163 -38.9512 -5.77634 -0.570612 5.4628 -103.023 -46.0086 57.9679 -31.5055 8.16725 4.40702 4.90982 9.2658 -32.0576 6.70394 0.645057 4.85215 8.41781 3.08085 3.98166 -3.76887 2.19204 0.683266 
-295.635 94.2842 -278.314 85.2542 -36.9235 87.9242 -173.58 6.24015 87.5486 -14.923 -17.4501 2.37831 78.0248 10.4788 -6.47137 27.7073 4.53075 -65.1164 177.564 5.99665 89.5633 -14.7168 32.6036 -1.2065 67.6568 -3.4267 -1.8034 41.345 3.03234 45.202 0.0428937 6.83856 -90.1354 13.1967 0.0199722 -0.273192 1.52576 0.00792606 -0.273817 -21.0092 0.101145 -0.254561 -0.996556 0.101149 -0.254562 82.8605 -49.5764 -111.79 28.0355 -8.55824 7.78528 -6.51822 -12.5468 -39.5597 -3.75134 -0.475886 7.68676 -102.93 -44.8749 57.6006 -31.471 7.98548 3.93439 4.59907 8.31627 -32.0066 6.5939 0.556463 3.90454 8.03462 2.30191 2.30437 -1.83509 1.82728 1.16906 
-295.209 93.1905 -278.645 84.668 -36.7607 87.7253 -173.641 4.85446 87.5848 -13.8653 -26.1858 2.79911 88.7523 10.5767 -19.4017 15.074 -0.102519 -59.5494 177.973 14.2563 90.0527 -29.6297 26.3703 -1.72699 69.534 -2.36042 -1.24496 43.8618 3.11576 29.6466 0.0327188 6.92615 -90.0458 13.0217 0.0430221 -0.0968652 1.35072 0.0387233 -0.0986788 -21.1844 0.0701269 -0.0794674 -1.17179 0.0701543 -0.0794623 82.7876 -50.7402 -111.486 27.7798 -7.85839 7.68918 -7.31797 -12.5826 -39.3964 -7.89442 -0.88381 7.70628 -102.416 -43.8981 57.9362 -31.3697 8.40556 4.09114 2.92179 4.29863 -33.6276 4.91807 0.289008 1.52403 7.996 1.59891 0.771966 -0.161556 1.50247 1.67151 
-294.736 92.0751 -278.687 83.92 -36.9421 87.5652 -173.683 2.33277 87.9029 -10.4397 -31.0328 2.31061 97.3783 13.2245 -26.6118 9.61843 -3.13639 -55.0605 178.442 21.2955 90.6788 -40.0821 15.8706 -1.77159 71.8087 -3.61552 -1.84403 43.9208 1.73369 11.3503 -0.0473844 7.02937 -90.0402 12.8151 -0.113277 -0.0666964 1.14416 -0.116077 -0.0616547 -21.391 -0.0880183 -0.0976613 -1.37836 -0.0879956 -0.0976653 82.6628 -50.9045 -111.614 28.0002 -7.0704 8.12765 -7.85243 -14.1042 -40.1908 -10.0946 -0.895126 5.00966 -102.964 -43.7366 57.0323 -29.734 7.27031 4.55821 4.46468 4.80032 -36.9279 7.93247 0.650292 3.83186 7.55863 1.50844 0.132077 2.64352 1.67775 2.72247 
